<svg width="201" height="48" fill="none" xmlns="http://www.w3.org/2000/svg"><g clip-path="url(#clip0_69_1295)"><path d="M23.904 47.808c13.202 0 23.904-10.702 23.904-23.904S37.106 0 23.904 0 0 10.702 0 23.904s10.702 23.904 23.904 23.904z" fill="#fff"/><path d="M23.868 20.435l-3.477 3.488L23.88 27.4l3.478-3.488-3.489-3.477z" fill="#2B9EF6"/><path d="M28.797 9.738L26.8 7.747l-2.89 2.902-2.929-2.924-1.992 1.997 2.929 2.923-3.646 3.657-2.94-2.934-1.99 1.997L16.28 18.3l-3.646 3.657-2.929-2.924-1.991 1.997 2.928 2.923-2.896 2.907 1.997 1.992 2.896-2.907 3.63 3.619-2.929 2.934 1.997 1.991 2.929-2.933 3.63 3.619L19 38.08l1.997 1.991 2.896-2.907 2.929 2.918 1.992-1.997-2.929-2.918 3.646-3.656 2.918 2.907 1.991-1.997-2.917-2.907 3.645-3.657 2.929 2.918 1.991-1.997-2.928-2.918 2.89-2.901-1.996-1.992-2.891 2.902-3.63-3.62 2.864-2.869-1.996-1.991-2.865 2.87-3.63-3.62 2.892-2.902zm4.342 14.166l-9.246 9.273-9.272-9.246 9.246-9.273 9.272 9.246z" fill="#2B9EF6"/><path d="M64.174 3.293c2.067 0 3.566.481 4.492 1.445.927.964 1.387 2.42 1.387 4.369v.904c0 1.301-.204 2.372-.616 3.213-.407.84-1.06 1.466-1.948 1.873 1.08.407 1.846 1.077 2.29 2.003.445.926.67 2.06.67 3.41v2.056c0 1.949-.503 3.431-1.515 4.454-1.012 1.023-2.516 1.531-4.508 1.531h-6.242V3.293h5.99zM62.156 6.9v6.676h1.553c.744 0 1.328-.193 1.75-.578.423-.386.632-1.082.632-2.094V9.497c0-.915-.16-1.574-.487-1.986-.327-.407-.835-.615-1.531-.615h-1.911l-.006.005zm0 10.284v7.758h2.276c.674 0 1.183-.182 1.53-.54.349-.36.525-1.013.525-1.95v-2.2c0-1.178-.198-1.986-.594-2.42-.396-.433-1.055-.648-1.965-.648h-1.772zm15.526-3.243h5.45v3.608h-5.45v7.4h6.858v3.607H73.715V3.293H84.54V6.9h-6.858v7.04zM99.145 3.293v3.533l-7.543 18.111h7.543v3.609H87.527v-3.534l7.544-18.111h-7.18V3.293h11.26-.006zm8.437 15.193l-1.226 2.308v7.757h-3.967V3.293h3.967V14.3l5.268-11.007h3.898l-5.52 11.258 5.52 14h-4.08l-3.86-10.065zm24.333 10.065h-4.005l-.685-4.583h-4.872l-.685 4.583h-3.646l4.042-25.258h5.809l4.042 25.258zm-9.059-8.009h3.823l-1.911-12.774-1.912 12.774zm11.505-11.184c0-2.045.488-3.614 1.462-4.711.974-1.092 2.436-1.644 4.385-1.644 1.948 0 3.41.546 4.384 1.644.975 1.098 1.462 2.666 1.462 4.711v.975h-3.753V9.107c0-.916-.177-1.558-.525-1.933-.348-.375-.835-.557-1.461-.557-.627 0-1.114.188-1.462.557-.348.375-.525 1.017-.525 1.933 0 .867.193 1.627.579 2.291a9.433 9.433 0 001.445 1.874 36.973 36.973 0 001.858 1.767 17.232 17.232 0 011.858 1.932 9.81 9.81 0 011.445 2.383c.386.888.578 1.938.578 3.137 0 2.045-.498 3.614-1.499 4.711-1.001 1.092-2.473 1.644-4.422 1.644-1.949 0-3.421-.546-4.422-1.644-1.001-1.092-1.499-2.666-1.499-4.711v-1.735h3.753v1.986c0 .916.187 1.553.557 1.912.374.358.872.54 1.499.54.626 0 1.124-.182 1.499-.54.374-.359.556-.996.556-1.912 0-.867-.192-1.627-.578-2.29a9.43 9.43 0 00-1.445-1.875 39.256 39.256 0 00-1.858-1.766 17.24 17.24 0 01-1.858-1.933 9.814 9.814 0 01-1.445-2.383c-.386-.888-.578-1.938-.578-3.137h.01zm14.75 0c0-2.045.487-3.614 1.461-4.711.975-1.092 2.436-1.644 4.385-1.644 1.949 0 3.41.546 4.385 1.644.974 1.098 1.461 2.666 1.461 4.711v.975h-3.753V9.107c0-.916-.176-1.558-.524-1.933-.348-.375-.836-.557-1.462-.557s-1.114.188-1.462.557c-.348.375-.524 1.017-.524 1.933 0 .867.193 1.627.578 2.291a9.433 9.433 0 001.445 1.874 37.408 37.408 0 001.858 1.767 17.01 17.01 0 011.858 1.932 9.81 9.81 0 011.445 2.383c.386.888.579 1.938.579 3.137 0 2.045-.498 3.614-1.499 4.711-1.002 1.092-2.474 1.644-4.423 1.644-1.948 0-3.421-.546-4.422-1.644-1.001-1.092-1.499-2.666-1.499-4.711v-1.735h3.753v1.986c0 .916.188 1.553.557 1.912.375.358.873.54 1.499.54.626 0 1.124-.182 1.499-.54.375-.359.557-.996.557-1.912 0-.867-.193-1.627-.578-2.29a9.473 9.473 0 00-1.446-1.875 39.256 39.256 0 00-1.858-1.766 17.232 17.232 0 01-1.857-1.933 9.849 9.849 0 01-1.446-2.383c-.385-.888-.578-1.938-.578-3.137h.011zm14.91-6.065h3.967V28.55h-3.967V3.293zm15.852 25.258a11.115 11.115 0 00-.145-.47 3.826 3.826 0 01-.128-.542 6.138 6.138 0 01-.07-.83 43.52 43.52 0 01-.016-1.263v-3.967c0-1.178-.203-2.008-.615-2.49-.407-.481-1.071-.722-1.987-.722h-1.37V28.55h-3.967V3.293h5.991c2.066 0 3.565.481 4.491 1.445.926.964 1.387 2.42 1.387 4.369v1.986c0 2.596-.867 4.304-2.597 5.123 1.012.407 1.703 1.076 2.078 2.003.374.926.556 2.05.556 3.372v3.898c0 .626.022 1.172.07 1.643.048.472.166.943.359 1.424h-4.042l.005-.005zm-4.331-21.65v7.757h1.552c.745 0 1.328-.192 1.751-.578.423-.385.632-1.081.632-2.093v-2.49c0-.915-.161-1.574-.487-1.986-.327-.407-.836-.615-1.537-.615h-1.911V6.9zm24.948 21.65h-4.005l-.685-4.583h-4.872l-.685 4.583h-3.646l4.042-25.258h5.809l4.042 25.258zm-9.058-8.009h3.822l-1.911-12.774-1.911 12.774zM57.23 44.28a.331.331 0 01-.235-.107.331.331 0 01-.107-.235c0-.054 0-.102.016-.145l3.833-10.477a.659.659 0 01.204-.316c.102-.09.246-.14.434-.14h2.414a.64.64 0 01.434.14.658.658 0 01.203.316l3.817 10.477a.319.319 0 01.032.145.332.332 0 01-.107.235.349.349 0 01-.251.107h-2.008a.521.521 0 01-.37-.123.617.617 0 01-.154-.22l-.638-1.664H60.39l-.621 1.665a.639.639 0 01-.145.22c-.075.08-.209.122-.39.122h-2.009.006zm3.834-4.358H64.1l-1.515-4.31-1.516 4.31h-.005zm14 4.878a.394.394 0 01-.284-.123.394.394 0 01-.123-.284v-1.125c-1.622 0-2.88-.364-3.785-1.086-.905-.723-1.413-1.805-1.537-3.24 0-.085 0-.208-.01-.369a4.843 4.843 0 010-.482c.005-.166.01-.283.01-.358.054-.948.3-1.746.745-2.393.439-.648 1.054-1.135 1.836-1.467.782-.332 1.697-.498 2.741-.498v-.948c0-.107.043-.203.123-.283a.394.394 0 01.284-.124h2.12a.405.405 0 01.407.407v.948c1.055 0 1.97.166 2.752.498.776.332 1.392.819 1.836 1.467.444.647.69 1.445.733 2.393.022.24.032.439.032.594 0 .155-.01.364-.032.61-.107 1.435-.615 2.517-1.515 3.24-.904.722-2.168 1.086-3.8 1.086v1.124a.405.405 0 01-.113.284.392.392 0 01-.295.123h-2.12l-.005.006zm-.39-3.898V35.73c-.697 0-1.243.161-1.634.488-.39.326-.615.845-.669 1.568a9.316 9.316 0 000 1.06c.032.718.246 1.242.642 1.569.397.327.948.487 1.655.487h.005zm2.906 0c.718 0 1.274-.16 1.665-.487.391-.327.605-.846.637-1.569.011-.075.016-.182.016-.316v-.417c0-.14-.005-.252-.016-.327-.053-.717-.273-1.242-.658-1.568-.386-.327-.932-.488-1.639-.488v5.172h-.005zm8.041 3.378a.405.405 0 01-.407-.407V33.268c0-.118.038-.22.113-.295a.403.403 0 01.294-.112h2.185c.118 0 .22.037.3.112.08.075.123.177.123.295v10.605a.394.394 0 01-.123.284.412.412 0 01-.3.123H85.62zm5.815 0a.405.405 0 01-.407-.407V33.268c0-.118.037-.22.112-.295a.403.403 0 01.294-.112h2.105c.117 0 .219.037.3.112.08.075.122.177.122.295v8.405h2.511v-8.405a.405.405 0 01.407-.407H99c.118 0 .22.037.295.112a.404.404 0 01.112.295v8.405h2.511v-8.405c0-.118.043-.22.123-.295a.405.405 0 01.284-.112h2.104c.118 0 .219.037.3.112.08.075.123.177.123.295v10.605a.395.395 0 01-.123.284.413.413 0 01-.3.123H91.425h.01zm15.755 0a.33.33 0 01-.235-.107.33.33 0 01-.107-.235c0-.054 0-.102.016-.145l3.833-10.477a.661.661 0 01.203-.316c.102-.09.247-.14.434-.14h2.415c.187 0 .326.05.433.14a.656.656 0 01.204.316l3.817 10.477a.324.324 0 01.032.145.33.33 0 01-.107.235.349.349 0 01-.252.107h-2.007a.523.523 0 01-.525-.342l-.637-1.665h-4.358l-.621 1.665a.634.634 0 01-.145.22c-.074.08-.208.122-.39.122h-2.008.005zm3.834-4.358h3.035l-1.515-4.31-1.515 4.31h-.005zm13.721 4.358a.405.405 0 01-.407-.407V33.268c0-.118.038-.22.113-.295a.402.402 0 01.294-.112h2.184c.118 0 .22.037.3.112a.389.389 0 01.123.295v10.605a.39.39 0 01-.123.284.412.412 0 01-.3.123h-2.184zm10.103 0a.404.404 0 01-.407-.407V33.268c0-.118.037-.22.112-.295a.405.405 0 01.295-.112h7.832c.118 0 .219.037.294.112a.404.404 0 01.113.295V34.9c0 .117-.038.22-.113.3a.39.39 0 01-.294.123h-5.306v1.927h2.27c1.307 0 2.335.31 3.084.931.75.621 1.124 1.467 1.124 2.543 0 .504-.091.964-.278 1.398a3.275 3.275 0 01-.808 1.124 3.857 3.857 0 01-1.307.76c-.519.188-1.124.279-1.82.279h-4.797l.006-.006zm2.526-2.12h2.008c.316 0 .578-.07.792-.203a1.27 1.27 0 00.482-.54c.107-.226.161-.461.161-.713 0-.38-.123-.707-.37-.98-.246-.273-.599-.407-1.07-.407h-2.008v2.838l.005.005zm8.872 2.12a.404.404 0 01-.407-.407V33.268c0-.118.037-.22.112-.295a.405.405 0 01.295-.112h2.184c.118 0 .219.037.3.112.08.075.123.177.123.295v10.605a.395.395 0 01-.123.284.413.413 0 01-.3.123h-2.184zm13.068 0a.393.393 0 01-.295-.123.405.405 0 01-.112-.284v-8.405h-3.036v1.483c0 1.317-.064 2.436-.187 3.352-.123.92-.348 1.67-.669 2.253a2.925 2.925 0 01-1.355 1.28c-.583.273-1.322.418-2.227.439a.443.443 0 01-.31-.123.396.396 0 01-.129-.3v-1.713c0-.241.134-.38.407-.423.305-.054.562-.209.766-.466.208-.257.374-.605.508-1.044.129-.439.225-.969.279-1.585.053-.615.08-1.295.08-2.05v-3.314a.39.39 0 01.123-.294.425.425 0 01.3-.113h7.961c.118 0 .219.038.3.113.08.075.123.176.123.294v10.606a.395.395 0 01-.123.284.413.413 0 01-.3.123h-2.104v.01zm5.723 0a.393.393 0 01-.295-.123.409.409 0 01-.112-.284V33.268c0-.118.038-.22.112-.295a.405.405 0 01.295-.112h7.618c.118 0 .22.037.295.112a.403.403 0 01.112.295v1.536c0 .118-.037.22-.112.295a.405.405 0 01-.295.112h-5.204v2.2h4.846a.39.39 0 01.294.124c.075.08.112.182.112.3v1.418a.405.405 0 01-.112.284.392.392 0 01-.294.123h-4.846v2.27h5.338c.118 0 .22.038.294.112a.404.404 0 01.113.295v1.531a.406.406 0 01-.407.407h-7.752v.005zm13.673 0a.405.405 0 01-.407-.407V35.42h-2.901a.393.393 0 01-.295-.123.405.405 0 01-.112-.284v-1.745c0-.118.037-.22.112-.295a.397.397 0 01.295-.112h8.78c.117 0 .219.037.294.112a.404.404 0 01.113.295v1.745a.406.406 0 01-.407.407h-2.902v8.453a.404.404 0 01-.407.407h-2.163zm8.357 0a.405.405 0 01-.407-.407V33.268c0-.118.038-.22.113-.295a.404.404 0 01.294-.112h2.104c.118 0 .22.037.3.112.08.075.123.177.123.295v3.506h1.537c1.392 0 2.473.306 3.244.921.771.616 1.156 1.542 1.156 2.784 0 .75-.165 1.413-.503 1.992-.337.578-.835 1.022-1.493 1.338-.659.316-1.462.471-2.41.471h-4.063.005zm2.527-2.27h1.467c.466 0 .825-.144 1.071-.433.246-.29.369-.654.369-1.103 0-.487-.128-.857-.385-1.092-.257-.241-.605-.359-1.055-.359h-1.467v2.987zm7.586 2.27a.404.404 0 01-.406-.407V33.268c0-.118.037-.22.112-.295a.404.404 0 01.294-.112h2.185c.118 0 .219.037.3.112.08.075.123.177.123.295v10.605a.395.395 0 01-.123.284.413.413 0 01-.3.123h-2.185z" fill="#fff"/></g><defs><clipPath id="clip0_69_1295"><path fill="#fff" d="M0 0h200.49v47.808H0z"/></clipPath></defs></svg>