<svg xmlns="http://www.w3.org/2000/svg" xmlns:xlink="http://www.w3.org/1999/xlink"><symbol viewBox="0 0 40 40" id="cross" xmlns="http://www.w3.org/2000/svg"><path d="M12 27.556 27.556 12M12.414 12l15.557 15.556"/></symbol><symbol viewBox="0 0 40 40" id="email" xmlns="http://www.w3.org/2000/svg"><path d="M7.51 32.22c-.87 0-1.6-.29-2.18-.87-.59-.58-.88-1.3-.88-2.17V10.81c0-.86.29-1.59.88-2.17.59-.58 1.31-.87 2.18-.87h26.1c.87 0 1.6.29 2.18.87.58.58.88 1.3.88 2.17v18.37c0 .86-.29 1.59-.88 2.17-.59.58-1.31.87-2.19.87H7.51Zm12.25-10.44c.47.35 1.11.35 1.58 0l12.97-9.58c.28-.21.43-.54.49-.89.04-.25.1-.27.06-.49-.09-.52-.87-.63-1.3-.32l-13.01 9.58-13.14-9.57c-.39-.29-.95-.12-1.01.36-.04.32-.05.65-.05 1l13.42 9.92Z"/></symbol><symbol viewBox="0 0 25 25" id="inst" xmlns="http://www.w3.org/2000/svg"><path d="M19.162 7.315a1.5 1.5 0 1 1-.006-3 1.5 1.5 0 0 1 .006 3Z"/><path fill-rule="evenodd" clip-rule="evenodd" d="M12.512 18.918a6.418 6.418 0 1 1-.025-12.837 6.419 6.419 0 1 1 .025 12.836Zm-.02-10.584a4.167 4.167 0 1 0 .016 8.333 4.167 4.167 0 0 0-.016-8.333Z"/><path fill-rule="evenodd" clip-rule="evenodd" d="M4.29.673C5.086.363 5.994.15 7.324.087 8.656.023 9.082.008 12.476.002c3.395-.007 3.82.006 5.153.065 1.331.058 2.24.267 3.035.575a6.117 6.117 0 0 1 2.217 1.437 6.13 6.13 0 0 1 1.446 2.212c.31.794.523 1.702.586 3.033.064 1.332.079 1.758.085 5.152.007 3.394-.007 3.82-.065 5.154-.058 1.33-.267 2.24-.575 3.034a6.128 6.128 0 0 1-1.437 2.217 6.128 6.128 0 0 1-2.211 1.446c-.795.31-1.703.523-3.033.587-1.333.063-1.759.078-5.154.084-3.393.007-3.819-.006-5.152-.065-1.33-.058-2.24-.267-3.035-.575a6.13 6.13 0 0 1-2.217-1.437 6.12 6.12 0 0 1-1.446-2.212c-.31-.794-.523-1.702-.586-3.031-.064-1.334-.079-1.76-.086-5.154-.006-3.394.007-3.82.066-5.153.058-1.33.267-2.24.575-3.036A6.125 6.125 0 0 1 2.08 2.12 6.114 6.114 0 0 1 4.29.673Zm.857 21.585c.441.17 1.103.372 2.322.425 1.319.058 1.713.07 5.05.064 3.338-.006 3.733-.02 5.051-.083 1.218-.058 1.88-.262 2.32-.434.583-.228.999-.5 1.435-.938.437-.438.707-.855.933-1.439.17-.441.372-1.103.425-2.322.058-1.318.07-1.713.064-5.05-.006-3.338-.02-3.733-.083-5.051-.058-1.218-.262-1.88-.434-2.32-.229-.584-.5-.998-.938-1.435a3.87 3.87 0 0 0-1.44-.933c-.44-.17-1.103-.372-2.32-.425-1.32-.058-1.714-.07-5.052-.063-3.337.006-3.732.02-5.05.082-1.218.058-1.88.262-2.32.435a3.872 3.872 0 0 0-1.436.937 3.879 3.879 0 0 0-.932 1.44c-.17.44-.373 1.103-.425 2.32-.058 1.32-.07 1.715-.063 5.051.006 3.338.02 3.733.082 5.05.057 1.22.263 1.88.434 2.322.228.582.5.998.938 1.435.439.435.855.706 1.44.932Z"/></symbol><symbol viewBox="0 0 24 24" id="link" xmlns="http://www.w3.org/2000/svg"><path d="M18 16.5h-3c-.28 0-.5-.22-.5-.5s.22-.5.5-.5h3c.92 0 1.82-.37 2.47-1.03S21.5 12.92 21.5 12s-.36-1.81-1.03-2.48A3.472 3.472 0 0 0 18 8.5h-3c-.28 0-.5-.22-.5-.5s.22-.5.5-.5h3c1.2 0 2.33.47 3.18 1.32S22.5 10.8 22.5 12s-.48 2.34-1.32 3.18-2 1.32-3.18 1.32Zm-9 0H6c-1.2 0-2.33-.47-3.18-1.32S1.5 13.2 1.5 12s.47-2.33 1.32-3.18C3.67 7.97 4.8 7.5 6 7.5h3c.28 0 .5.22.5.5s-.22.5-.5.5H6c-.93 0-1.81.36-2.48 1.02-.66.66-1.02 1.54-1.02 2.48s.36 1.81 1.02 2.47c.66.66 1.54 1.03 2.48 1.03h3c.28 0 .5.22.5.5s-.22.5-.5.5Zm7-4H8c-.28 0-.5-.22-.5-.5s.22-.5.5-.5h8c.28 0 .5.22.5.5s-.22.5-.5.5Z"/></symbol><symbol viewBox="0 0 24 24" id="od" xmlns="http://www.w3.org/2000/svg"><path fill-rule="evenodd" clip-rule="evenodd" d="M15.85 10.323a5.437 5.437 0 0 1-7.703 0 5.437 5.437 0 0 1 0-7.703 5.437 5.437 0 0 1 7.703 0 5.437 5.437 0 0 1 0 7.703ZM12 3.983a2.46 2.46 0 0 0-1.744.726c-.436.455-.727 1.072-.727 1.744 0 .673.273 1.29.727 1.744a2.397 2.397 0 0 0 1.744.727 2.46 2.46 0 0 0 1.744-.727 2.397 2.397 0 0 0 .726-1.744 2.46 2.46 0 0 0-.726-1.744 2.397 2.397 0 0 0-1.744-.726Z"/><path d="m17.74 11.94 1.598 2.18c.091.109.073.254-.073.345-1.344 1.108-2.906 1.835-4.541 2.216l3.379 5.959c.09.182-.018.381-.218.381h-3.307a.259.259 0 0 1-.236-.163l-2.361-5.268-2.362 5.268c-.036.109-.127.163-.236.163H6.076c-.181 0-.308-.218-.218-.381l3.38-5.959a11.283 11.283 0 0 1-4.542-2.216.275.275 0 0 1-.037-.345l1.599-2.18a.282.282 0 0 1 .382-.037c1.507 1.29 3.36 2.126 5.359 2.126 1.998 0 3.851-.836 5.359-2.126a.251.251 0 0 1 .381.037Z"/></symbol><symbol viewBox="0 0 23 23" id="tiktok" xmlns="http://www.w3.org/2000/svg"><g clip-path="url(#a)"><path d="M16.361 0h-3.876v15.667c0 1.866-1.49 3.4-3.346 3.4-1.855 0-3.346-1.534-3.346-3.4 0-1.834 1.457-3.334 3.247-3.4V8.333c-3.943.067-7.123 3.3-7.123 7.334C1.917 19.733 5.163 23 9.172 23s7.255-3.3 7.255-7.333V7.633a8.976 8.976 0 0 0 5.136 1.734V5.433c-2.916-.1-5.202-2.5-5.202-5.433Z"/></g><defs><clipPath id="a"><path d="M0 0h23v23H0z"/></clipPath></defs></symbol><symbol viewBox="0 0 24 24" id="vk" xmlns="http://www.w3.org/2000/svg"><path d="M13.072 19.485C4.872 19.485.195 13.864 0 4.51h4.107c.135 6.866 3.163 9.774 5.562 10.373V4.51h3.868v5.921c2.368-.255 4.856-2.953 5.696-5.921H23.1c-.644 3.657-3.343 6.356-5.261 7.465 1.919.9 4.992 3.253 6.161 7.51h-4.258c-.914-2.848-3.192-5.051-6.205-5.351v5.351h-.465Z"/></symbol><symbol viewBox="0 0 24 24" id="youtube" xmlns="http://www.w3.org/2000/svg"><g clip-path="url(#a)"><path fill-rule="evenodd" clip-rule="evenodd" d="M22.747 4.834c.372.375.64.84.775 1.351.502 1.885.502 5.815.502 5.815s0 3.93-.502 5.814A3.016 3.016 0 0 1 21.4 19.95c-1.876.505-9.376.505-9.376.505s-7.5 0-9.377-.505a3.017 3.017 0 0 1-2.121-2.136C.024 15.93.024 12 .024 12s0-3.93.502-5.815A3.016 3.016 0 0 1 2.647 4.05c1.877-.505 9.377-.505 9.377-.505s7.5 0 9.376.505c.51.139.974.41 1.347.784ZM15.841 12 9.569 8.431v7.138L15.842 12Z"/></g><defs><clipPath id="a"><path d="M0 0h24v24H0z"/></clipPath></defs></symbol></svg>