<svg width="114" height="57" fill="none" xmlns="http://www.w3.org/2000/svg"><path fill-rule="evenodd" clip-rule="evenodd" d="M16.84 21.64C12.082-18.695-2.718 11.123 4.641 37.313 13.84 70.052 44.4 45.19 33.57 22.851c-6.037-12.452-16.221-6.163-16.729-1.21z" fill="#FF0090"/><path fill-rule="evenodd" clip-rule="evenodd" d="M64.186 27.47c21.68 1.881 22.588-7.756 3.9-9.91C80.34 15.06 95.699.267 79.545 2.185 71.02 3.196 57.386 7.129 53.606 17.712c-2.558 7.161-4.5 22.298.807 31.851 6.283 11.309 20.25-6.824 9.773-22.093z" fill="#972CEC"/><path d="M76.687 34.031c.896 0 1.663.33 2.298.993.635.662.953 1.475.953 2.443 0 .967-.318 1.77-.953 2.436-.635.667-1.402.999-2.298.999-.993 0-1.756-.37-2.286-1.11v.94h-1.41v-9.141h1.41v3.54c.53-.732 1.293-1.098 2.286-1.098v-.002zm-1.697 4.93c.393.397.884.593 1.475.593.591 0 1.085-.198 1.475-.593.391-.395.588-.895.588-1.496 0-.602-.197-1.1-.588-1.497-.392-.395-.883-.593-1.475-.593-.591 0-1.084.199-1.475.593-.393.397-.587.895-.587 1.497 0 .601.196 1.099.587 1.496zm7.339-.895c.104.497.343.878.719 1.143.374.265.831.4 1.37.4.748 0 1.31-.27 1.685-.81l1.161.68c-.643.948-1.598 1.423-2.86 1.423-1.062 0-1.92-.324-2.572-.974-.652-.648-.98-1.469-.98-2.461 0-.993.321-1.791.965-2.45.644-.658 1.471-.986 2.482-.986.957 0 1.743.335 2.357 1.005.615.671.922 1.484.922 2.443 0 .148-.017.345-.052.587h-5.197zm-.013-1.15h3.839c-.096-.53-.316-.931-.66-1.2a1.898 1.898 0 00-1.208-.406c-.523 0-.957.144-1.306.43-.35.287-.57.68-.667 1.175l.002.002zm6.502 3.814v-9.532h1.41v9.533h-1.41zm6.74-6.699c.896 0 1.663.33 2.298.993.636.662.953 1.475.953 2.443 0 .967-.317 1.77-.953 2.436-.635.667-1.402.999-2.298.999-.993 0-1.756-.37-2.286-1.11v.94h-1.41v-9.141h1.41v3.54c.53-.732 1.293-1.098 2.286-1.098v-.002zm-1.7 4.93c.394.397.885.593 1.476.593s1.085-.198 1.475-.593c.391-.395.588-.895.588-1.496 0-.602-.197-1.1-.588-1.497-.392-.395-.883-.593-1.475-.593-.591 0-1.084.199-1.475.593-.393.397-.587.895-.587 1.497 0 .601.196 1.099.587 1.496zm7.338-.895c.105.497.345.878.719 1.143s.832.4 1.371.4c.748 0 1.31-.27 1.684-.81l1.162.68c-.644.948-1.599 1.423-2.861 1.423-1.061 0-1.92-.324-2.572-.974-.652-.648-.98-1.469-.98-2.461 0-.993.322-1.791.965-2.45.644-.658 1.471-.986 2.48-.986.957 0 1.743.335 2.357 1.005.615.671.922 1.484.922 2.443 0 .148-.017.345-.052.587h-5.199.004zm-.012-1.15h3.84c-.096-.53-.315-.931-.66-1.2a1.903 1.903 0 00-1.208-.406c-.522 0-.957.144-1.306.43-.349.287-.57.68-.666 1.175v.002zm9.94-1.357h-1.62v3.134c0 .27.061.464.184.58.124.118.303.185.541.197.239.013.537.01.895-.006v1.266c-1.081.13-1.856.038-2.324-.28-.468-.317-.704-.902-.704-1.757v-3.134h-1.201V34.2h1.201v-1.41l1.41-.418V34.2h1.62v1.359h-.002zm-34.71 9.177c-1.028-.096-1.542.334-1.542 1.293v.13h1.542v1.358h-1.542v5.172h-1.41v-5.172h-.993V46.16h.992v-.13c0-.896.251-1.577.75-2.043.5-.466 1.235-.669 2.2-.608v1.358h.003zm1.632 5.289c.104.498.344.878.718 1.143.374.266.832.4 1.371.4.748 0 1.31-.27 1.684-.81l1.162.68c-.643.948-1.598 1.423-2.86 1.423-1.062 0-1.92-.324-2.573-.974-.652-.648-.98-1.469-.98-2.462 0-.992.322-1.79.966-2.448.643-.659 1.47-.987 2.48-.987.957 0 1.743.335 2.357 1.005.614.671.922 1.484.922 2.443 0 .148-.017.345-.053.587h-5.198.004zm-.013-1.15h3.84c-.095-.53-.315-.931-.66-1.2a1.902 1.902 0 00-1.207-.406c-.523 0-.957.144-1.306.43-.35.287-.57.68-.667 1.175v.002zm7.507-.915c0 .217.12.39.36.516.238.126.53.234.875.326.343.092.69.199 1.039.32s.641.328.882.62c.24.293.36.66.36 1.104 0 .627-.243 1.118-.726 1.475s-1.09.535-1.822.535c-.644 0-1.197-.136-1.66-.406a2.364 2.364 0 01-1.004-1.124l1.214-.704c.225.627.708.94 1.45.94s1.11-.244 1.11-.731c0-.209-.12-.378-.36-.51-.24-.13-.53-.242-.875-.332a14.71 14.71 0 01-1.039-.32 1.99 1.99 0 01-.882-.608c-.24-.282-.36-.641-.36-1.078 0-.6.229-1.084.686-1.45.458-.366 1.026-.548 1.705-.548.54 0 1.02.12 1.444.36.422.24.746.572.972.999l-1.19.666c-.225-.495-.634-.744-1.228-.744-.27 0-.497.059-.679.176a.577.577 0 00-.274.516l.002.002zm8.137-.442h-1.62v3.134c0 .27.06.464.184.58.121.118.303.185.541.197.239.013.537.01.895-.006v1.266c-1.08.13-1.856.038-2.324-.28-.468-.317-.706-.902-.706-1.757v-3.134h-1.202v-1.359h1.202v-1.41l1.41-.418v1.828h1.62v1.359z" fill="#fff"/><path fill-rule="evenodd" clip-rule="evenodd" d="M41.758 22.515c-.439-5.859-1.964-20.929-6.578-20.54-6.985.59-12.126 31.837-3.684 44.95 8.442 13.115 25.63 3.415 27.294-11.21 2.672-23.497-16.056-22.58-17.03-13.2" fill="#CD00CD"/><path fill-rule="evenodd" clip-rule="evenodd" d="M28.023 16.458c-1.68 9.913-1.264 22.553 3.164 29.964 4.563-5.915 6.57-14.932 2.382-23.572-1.636-3.375-3.576-5.37-5.546-6.392z" fill="#972CEC"/><path fill-rule="evenodd" clip-rule="evenodd" d="M53.593 17.754c-2.37 6.67-4.2 20.179-.195 29.71 2.825-3.066 4.871-7.166 5.393-11.75 1.137-10-1.602-15.576-5.198-17.962" fill="#FF0090"/></svg>